<svg width="63.548096" height="60.000000" viewBox="0 0 63.5481 60" fill="none" xmlns="http://www.w3.org/2000/svg" xmlns:xlink="http://www.w3.org/1999/xlink">
	<desc>
			Created with Pixso.
	</desc>
	<defs>
		<linearGradient id="paint_linear_9_190_0" x1="0.010742" y1="30.006256" x2="63.537357" y2="30.006256" gradientUnits="userSpaceOnUse">
			<stop stop-color="#0CBAF1"/>
			<stop offset="1.000000" stop-color="#E95CE9"/>
		</linearGradient>
	</defs>
	<mask id="mask9_187" mask-type="alpha" maskUnits="userSpaceOnUse" x="0.000000" y="0.000000" width="63.548096" height="60.000000">
		<path id="Vector" d="M0 0L63.5481 0L63.5481 60L0 60L0 0Z" fill="#000000" fill-opacity="1.000000" fill-rule="nonzero"/>
	</mask>
	<g mask="url(#mask9_187)">
		<path id="Vector" d="M57.6019 40.8271C57.6019 40.8271 57.618 40.8271 57.6227 40.8271C57.6326 40.8203 57.6417 40.8125 57.651 40.8047C57.6625 40.7959 57.6732 40.7871 57.6831 40.7764C57.6985 40.7627 57.7115 40.7471 57.7222 40.7305L57.746 40.6982C57.7567 40.6777 57.7659 40.6562 57.7736 40.6348C57.7782 40.626 57.782 40.6152 57.785 40.6055C57.7942 40.5723 57.7988 40.5391 57.7988 40.5059L57.7988 12.1152C57.7981 12.04 57.7766 11.9697 57.7345 11.9072C57.6924 11.8447 57.6372 11.7979 57.5675 11.7676L32.2399 0.234375C32.2085 0.174805 32.1648 0.125 32.1073 0.0888672C32.0139 0.0273438 31.9127 0.0117188 31.804 0.0429688C31.7618 0.0302734 31.7189 0.0253906 31.6752 0.0292969C31.6316 0.0322266 31.5894 0.0419922 31.5496 0.0595703C31.5098 0.0771484 31.4738 0.100586 31.4415 0.130859C31.4093 0.161133 31.384 0.195312 31.3641 0.234375L6.0343 11.7676C5.9646 11.7979 5.90857 11.8447 5.86646 11.9072C5.82434 11.9697 5.80286 12.04 5.80212 12.1152L5.80212 40.4961C5.80212 40.5303 5.80676 40.5635 5.81665 40.5957C5.81665 40.6074 5.81665 40.6143 5.82812 40.626C5.8396 40.6377 5.84424 40.667 5.85571 40.6885L5.87878 40.7207C5.89099 40.7373 5.90405 40.7529 5.91858 40.7666L5.95081 40.7949C5.95923 40.8027 5.96912 40.8115 5.97839 40.8184L5.99902 40.8184L6.01819 40.832L31.5358 53.1729C31.5879 53.1992 31.6438 53.2119 31.702 53.2109C31.7603 53.2109 31.8147 53.1982 31.8667 53.1729L57.5835 40.832L57.6019 40.8271ZM49.3842 43.9277L41.4812 40.1631L48.3185 36.9023C48.3583 36.8838 48.3866 36.8545 48.4043 36.8145L56.5132 40.5059L49.3842 43.9277ZM40.1772 48.3477L32.2445 44.5674L41.0483 40.374L48.9513 44.1406L40.1772 48.3477ZM14.6274 44.1553L22.5625 40.374L31.3665 44.5674L23.3662 48.3779L14.6274 44.1553ZM7.08386 40.5078L15.1929 36.8145C15.2097 36.8545 15.238 36.8848 15.278 36.9023L22.1151 40.1631L14.1869 43.9414L7.08386 40.5078ZM24.5944 32.5352L31.3573 35.7588L22.5533 39.9521L15.5981 36.6318L24.5944 32.5352ZM25.0579 32.3291L31.8108 29.2568L38.5623 32.3291L31.8085 35.5479L25.0579 32.3291ZM39.0165 32.5352L48.015 36.6318L41.0483 39.9521L32.2445 35.7588L39.0165 32.5352ZM23.0046 40.1631L31.8085 35.9697L40.6124 40.1631L31.8085 44.3545L23.0046 40.1631ZM57.0342 21.0273L56.6266 20.8418C56.6036 20.832 56.5791 20.8262 56.5538 20.8252C56.5286 20.8242 56.504 20.8281 56.4803 20.8369C56.4565 20.8457 56.4358 20.8594 56.4175 20.877C56.399 20.8945 56.3845 20.9141 56.3738 20.9375C56.3531 20.9854 56.3516 21.0342 56.37 21.083C56.3883 21.1318 56.4213 21.168 56.4688 21.1895L57.0342 21.4463L57.0342 31.2998L56.6266 31.1143C56.6036 31.1035 56.5791 31.0977 56.5538 31.0967C56.5286 31.0957 56.504 31.0996 56.4803 31.1084C56.4565 31.1182 56.4358 31.1309 56.4175 31.1475C56.399 31.165 56.3845 31.1855 56.3738 31.209C56.3531 31.2568 56.3516 31.3057 56.37 31.3545C56.3883 31.4033 56.4213 31.4395 56.4688 31.4609L57.0342 31.7188L57.0342 39.9033L32.2836 28.6367L32.2836 20.4512L32.4896 20.5459C32.538 20.5684 32.5869 20.5703 32.6367 20.5518C32.6865 20.5342 32.7225 20.501 32.7448 20.4531C32.7662 20.4053 32.7677 20.3564 32.7494 20.3066C32.731 20.2568 32.6973 20.2207 32.6498 20.1982L32.2836 20.0312L32.2836 10.1797L32.4896 10.2744C32.538 10.2969 32.5869 10.2988 32.6367 10.2803C32.6865 10.2607 32.7225 10.2275 32.7448 10.1797C32.7655 10.1318 32.7662 10.083 32.7478 10.0342C32.7295 9.98535 32.6973 9.9502 32.6498 9.92676L32.2836 9.75391L32.2836 1.09375L57.0342 12.3613L57.0342 21.0273ZM31.5189 1.00391L31.5189 9.57031L30.7543 9.91992C30.7145 9.93945 30.6846 9.96875 30.6647 10.0088C30.6448 10.0488 30.6394 10.0908 30.6486 10.1348C30.6586 10.1777 30.6799 10.2139 30.7145 10.2422C30.7489 10.2705 30.7888 10.2852 30.8333 10.2861C30.8608 10.2852 30.8876 10.2793 30.9121 10.2676L31.5189 9.98926L31.5189 19.8516L30.7543 20.2031C30.7313 20.2139 30.7114 20.2275 30.6937 20.2461C30.6769 20.2646 30.6631 20.2861 30.6547 20.3096C30.6455 20.334 30.6417 20.3584 30.6425 20.3838C30.6432 20.4082 30.6493 20.4326 30.6593 20.4551C30.6937 20.5293 30.752 20.5664 30.8333 20.5674C30.8608 20.5664 30.8876 20.5605 30.9121 20.5479L31.5189 20.2705L31.5189 28.4561L6.56677 39.9014L6.56677 31.7188L7.1322 31.459C7.18042 31.4365 7.21338 31.4004 7.23096 31.3506C7.24939 31.3008 7.24707 31.252 7.22485 31.2041C7.20264 31.1562 7.16736 31.123 7.11755 31.1055C7.0686 31.0869 7.02026 31.0898 6.97278 31.1123L6.56677 31.2969L6.56677 21.4463L7.1322 21.1875C7.18042 21.165 7.21338 21.1289 7.23096 21.0791C7.24939 21.0293 7.24707 20.9805 7.22485 20.9326C7.20264 20.8848 7.16736 20.8525 7.11755 20.834C7.0686 20.8164 7.02026 20.8174 6.97278 20.8398L6.56677 21.0254L6.56677 12.3613L31.5189 1.00391ZM31.702 52.4072L23.7976 48.584L31.7993 44.7705L39.7344 48.5518L31.702 52.4072ZM23.3433 13.5391C23.321 13.4922 23.3187 13.4434 23.3372 13.3936C23.3555 13.3447 23.3877 13.3086 23.4359 13.2871L25.2664 12.4492C25.3131 12.4326 25.359 12.4346 25.4042 12.4541C25.4495 12.4736 25.4824 12.5059 25.5023 12.5498C25.5229 12.5957 25.526 12.6406 25.5115 12.6885C25.4969 12.7344 25.4686 12.7705 25.4257 12.7959L23.5953 13.6348C23.5708 13.6445 23.5439 13.6504 23.5172 13.6504C23.4352 13.6514 23.377 13.6133 23.3433 13.5391ZM27.0017 11.8633C26.9795 11.8145 26.9772 11.7666 26.9955 11.7168C27.0132 11.667 27.0461 11.6309 27.0944 11.6084L28.9247 10.7695C28.9707 10.7539 29.0166 10.7559 29.0619 10.7754C29.1071 10.7949 29.14 10.8271 29.1606 10.8711C29.1814 10.917 29.1844 10.9619 29.1699 11.0098C29.1553 11.0566 29.1262 11.0918 29.0841 11.1172L27.2538 11.9561C27.2292 11.9668 27.2024 11.9736 27.1748 11.9736C27.0936 11.9736 27.0354 11.9365 27.0017 11.8633ZM8.69824 20.2549C8.68823 20.2305 8.68286 20.2051 8.68359 20.1777C8.68359 20.1523 8.68982 20.127 8.70044 20.1025C8.71118 20.0781 8.72729 20.0576 8.74646 20.04C8.76636 20.0225 8.78931 20.0098 8.8147 20.002L10.642 19.1611C10.6656 19.1475 10.6909 19.1387 10.7178 19.1357C10.7454 19.1328 10.7714 19.1357 10.7975 19.1426C10.8235 19.1514 10.8464 19.1641 10.8672 19.1816C10.8878 19.2002 10.9039 19.2217 10.9147 19.2461C10.9261 19.2705 10.9323 19.2969 10.9323 19.3242C10.9331 19.3516 10.9277 19.377 10.917 19.4023C10.9062 19.4277 10.8909 19.4492 10.871 19.4678C10.8511 19.4863 10.8281 19.5 10.802 19.5088L8.97168 20.3467C8.94714 20.3584 8.92041 20.3652 8.89282 20.3662C8.85376 20.3672 8.81689 20.3584 8.7832 20.3379C8.74951 20.3184 8.72424 20.29 8.7074 20.2549L8.69824 20.2549ZM12.3657 18.5752C12.3551 18.5518 12.3489 18.5273 12.3481 18.502C12.3467 18.4775 12.3512 18.4521 12.3596 18.4277C12.3689 18.4043 12.3818 18.3828 12.3995 18.3643C12.4171 18.3457 12.4377 18.3311 12.4608 18.3213L14.2888 17.4805C14.3126 17.4668 14.3379 17.458 14.3646 17.4551C14.3915 17.4512 14.4183 17.4541 14.4443 17.4619C14.4705 17.4707 14.4934 17.4834 14.514 17.501C14.5341 17.5195 14.55 17.541 14.5615 17.5654C14.5731 17.5898 14.5792 17.6162 14.5792 17.6436C14.58 17.6699 14.5746 17.6963 14.5638 17.7217C14.5531 17.7461 14.5378 17.7686 14.5171 17.7871C14.4972 17.8057 14.4742 17.8193 14.449 17.8271L12.6208 18.668C12.5948 18.6797 12.568 18.6846 12.5397 18.6836C12.4592 18.6846 12.401 18.6484 12.3657 18.5752ZM16.0242 16.8965C16.0027 16.8486 16.0012 16.7998 16.0204 16.751C16.0387 16.7021 16.0717 16.667 16.1191 16.6445L17.9495 15.8037C17.9978 15.7822 18.046 15.7812 18.0951 15.7998C18.1442 15.8174 18.1802 15.8516 18.2024 15.8994C18.2123 15.9219 18.2185 15.9453 18.2192 15.9707C18.22 15.9961 18.2162 16.0205 18.2069 16.0449C18.1985 16.0684 18.1855 16.0898 18.1678 16.1084C18.1503 16.127 18.1304 16.1416 18.1073 16.1514L16.2793 16.9912C16.2311 17.0127 16.182 17.0137 16.1329 16.9951C16.0831 16.9766 16.0471 16.9443 16.0242 16.8965ZM19.6848 15.2178C19.6626 15.1709 19.6604 15.1221 19.6787 15.0723C19.6971 15.0234 19.7301 14.9873 19.7776 14.9658L21.6079 14.1279C21.6309 14.1152 21.6554 14.1084 21.6815 14.1064C21.7075 14.1045 21.7328 14.1074 21.7573 14.1162C21.7819 14.125 21.8041 14.1377 21.8232 14.1553C21.8424 14.1729 21.8577 14.1934 21.8684 14.2178C21.8792 14.2412 21.8845 14.2656 21.8853 14.292C21.886 14.3174 21.8815 14.3428 21.8715 14.3672C21.8623 14.3916 21.8478 14.4121 21.8293 14.4307C21.8109 14.4482 21.7896 14.4629 21.765 14.4727L19.9354 15.3105C19.9102 15.3213 19.884 15.3271 19.8564 15.3271C19.8197 15.3271 19.7853 15.3174 19.7546 15.2988C19.7231 15.2783 19.7002 15.252 19.6848 15.2178ZM45.3066 15.8994C45.3289 15.8506 45.3649 15.8174 45.4147 15.7998C45.4645 15.7812 45.5128 15.7822 45.5618 15.8037L47.4152 16.6445C47.4619 16.667 47.4948 16.7031 47.5132 16.752C47.5316 16.7998 47.5308 16.8486 47.5101 16.8965C47.494 16.9307 47.4703 16.959 47.4381 16.9785C47.4067 16.998 47.3715 17.0088 47.3339 17.0078C47.3063 17.0078 47.2803 17.002 47.255 16.9912L45.4016 16.1514C45.3541 16.1289 45.3212 16.0938 45.3021 16.0449C45.2837 15.9951 45.2852 15.9463 45.3066 15.8994ZM52.6855 19.2588C52.6963 19.2354 52.7108 19.2148 52.7292 19.1982C52.7476 19.1807 52.7683 19.167 52.792 19.1582C52.8158 19.1494 52.8403 19.1455 52.8656 19.1465C52.8909 19.1475 52.9154 19.1533 52.9384 19.1641L54.7916 20.002C54.8323 20.0205 54.8622 20.0508 54.8821 20.0908C54.9012 20.1309 54.9066 20.1729 54.8975 20.2168C54.8882 20.2598 54.866 20.2949 54.8315 20.3232C54.797 20.3516 54.7572 20.3672 54.7128 20.3682C54.6852 20.3672 54.6592 20.3613 54.6339 20.3486L52.7805 19.5107C52.7576 19.501 52.7377 19.4863 52.72 19.4678C52.7024 19.4492 52.6893 19.4277 52.6809 19.4043C52.6718 19.3809 52.6678 19.3564 52.6687 19.3311C52.6694 19.3057 52.6748 19.2812 52.6855 19.2588ZM41.6184 14.2207C41.6406 14.1719 41.6759 14.1396 41.7249 14.1211C41.7739 14.1025 41.823 14.1035 41.8705 14.125L43.7246 14.9658C43.7721 14.9873 43.8051 15.0234 43.8226 15.0723C43.8411 15.1221 43.8387 15.1709 43.8173 15.2178C43.8019 15.252 43.7782 15.2793 43.7468 15.2998C43.7153 15.3193 43.6809 15.3301 43.6433 15.3291C43.6166 15.3281 43.5912 15.3223 43.5668 15.3105L41.7134 14.4697C41.6659 14.4482 41.6337 14.4131 41.6154 14.3643C41.5969 14.3164 41.5977 14.2676 41.6184 14.2207ZM48.9972 17.5781C49.0194 17.5303 49.0547 17.4971 49.1045 17.4785C49.1536 17.4609 49.2018 17.4629 49.2501 17.4854L51.1034 18.3232C51.144 18.3428 51.1738 18.3711 51.1938 18.4121C51.213 18.4521 51.2184 18.4941 51.2091 18.5371C51.2 18.5811 51.1777 18.6162 51.1432 18.6445C51.1088 18.6729 51.069 18.6875 51.0245 18.6885C50.9969 18.6885 50.9708 18.6826 50.9456 18.6699L49.0923 17.832C49.0439 17.8096 49.0103 17.7744 48.9918 17.7246C48.9735 17.6748 48.975 17.626 48.9972 17.5781ZM34.2418 10.8623C34.2518 10.8389 34.2656 10.8184 34.2839 10.8008C34.3024 10.7842 34.3239 10.7705 34.3475 10.7617C34.3713 10.7529 34.3959 10.749 34.4211 10.75C34.4471 10.75 34.4709 10.7568 34.4939 10.7676L36.3473 11.6064C36.3878 11.625 36.4177 11.6543 36.4376 11.6943C36.4575 11.7344 36.4622 11.7764 36.453 11.8203C36.4437 11.8633 36.4215 11.8994 36.3871 11.9277C36.3525 11.9561 36.3135 11.9707 36.2683 11.9717C36.2407 11.9717 36.2147 11.9648 36.1902 11.9531L34.3361 11.1152C34.3131 11.1045 34.2932 11.0898 34.2755 11.0713C34.2587 11.0527 34.2449 11.0322 34.2365 11.0088C34.2273 10.9854 34.2234 10.96 34.2242 10.9355C34.225 10.9102 34.2311 10.8857 34.2418 10.8623ZM37.9301 12.5322C37.9401 12.5088 37.9546 12.4893 37.973 12.4717C37.9915 12.4541 38.0128 12.4404 38.0366 12.4326C38.0603 12.4229 38.0848 12.4189 38.1101 12.4199C38.1355 12.4209 38.1592 12.4268 38.1821 12.4365L40.0355 13.2783C40.0592 13.2881 40.08 13.3018 40.0968 13.3203C40.1144 13.3389 40.1282 13.3604 40.1366 13.3838C40.1459 13.4072 40.1497 13.4316 40.1489 13.457C40.1473 13.4824 40.142 13.5068 40.1305 13.5303C40.109 13.5771 40.073 13.6104 40.024 13.6289C39.975 13.6484 39.9259 13.6465 39.8784 13.625L38.0251 12.7842C38.0013 12.7734 37.9814 12.7598 37.9639 12.7412C37.947 12.7227 37.934 12.7021 37.9248 12.6777C37.9155 12.6543 37.9117 12.6299 37.9125 12.6045C37.9132 12.5791 37.9194 12.5547 37.9301 12.5322ZM23.3341 23.8047C23.3119 23.7559 23.3096 23.707 23.3279 23.6572C23.3456 23.6084 23.3785 23.5713 23.4268 23.5488L25.264 22.7197C25.3108 22.7051 25.356 22.7061 25.402 22.7256C25.4471 22.7451 25.4801 22.7764 25.5 22.8223C25.5206 22.8662 25.5238 22.9121 25.5092 22.959C25.4946 23.0068 25.4663 23.043 25.4233 23.0684L23.593 23.9062C23.5685 23.918 23.5425 23.9238 23.5149 23.9248C23.4344 23.9229 23.377 23.8857 23.3433 23.8135L23.3341 23.8047ZM19.6848 25.499C19.6626 25.4512 19.6604 25.4023 19.6787 25.3535C19.6971 25.3047 19.7301 25.2686 19.7776 25.2461L21.6079 24.4082C21.6554 24.3867 21.7037 24.3838 21.7535 24.4023C21.8025 24.4199 21.8385 24.4531 21.86 24.501C21.8822 24.5479 21.8845 24.5977 21.8661 24.6465C21.8485 24.6953 21.8156 24.7314 21.7681 24.7539L19.9354 25.585C19.9102 25.5957 19.884 25.6006 19.8564 25.6006C19.7776 25.6035 19.7201 25.5693 19.6848 25.499ZM16.0242 27.1777C16.0027 27.1289 16.0012 27.0811 16.0204 27.0322C16.0387 26.9834 16.0717 26.9473 16.1191 26.9258L17.9495 26.084C17.9978 26.0635 18.046 26.0625 18.0951 26.0801C18.1442 26.0986 18.1802 26.1318 18.2024 26.1797C18.2123 26.2021 18.2185 26.2266 18.2192 26.252C18.22 26.2773 18.2162 26.3018 18.2069 26.3252C18.1985 26.3496 18.1855 26.3701 18.1678 26.3887C18.1503 26.4072 18.1304 26.4219 18.1073 26.4326L16.2793 27.2725C16.2311 27.293 16.182 27.2939 16.1329 27.2764C16.0831 27.2578 16.0471 27.2256 16.0242 27.1777ZM12.3657 28.8564C12.3558 28.833 12.3497 28.8096 12.3489 28.7832C12.3481 28.7578 12.3519 28.7334 12.3612 28.7109C12.3696 28.6865 12.3827 28.665 12.4003 28.6475C12.4178 28.6289 12.4377 28.6143 12.4608 28.6045L14.2888 27.7637C14.3126 27.749 14.3379 27.7412 14.3646 27.7373C14.3915 27.7344 14.4183 27.7373 14.4443 27.7451C14.4705 27.7539 14.4934 27.7666 14.514 27.7842C14.5341 27.8018 14.55 27.8232 14.5615 27.8486C14.5731 27.873 14.5792 27.8994 14.5792 27.9258C14.58 27.9541 14.5746 27.9795 14.5638 28.0039C14.5531 28.0293 14.5378 28.0508 14.5171 28.0703C14.4972 28.0889 14.4742 28.1016 14.449 28.1104L12.6208 28.9512C12.5948 28.9619 12.568 28.9678 12.5397 28.9678C12.5013 28.9668 12.4662 28.9551 12.4347 28.9336C12.4033 28.9111 12.3804 28.8818 12.3657 28.8467L12.3657 28.8564ZM8.7074 30.5352C8.69666 30.5117 8.69055 30.4883 8.68982 30.4619C8.68896 30.4365 8.69287 30.4121 8.70203 30.3887C8.71045 30.3652 8.72424 30.3438 8.74109 30.3262C8.75867 30.3076 8.77942 30.293 8.80237 30.2832L10.6305 29.4355C10.6542 29.4219 10.6794 29.4121 10.7063 29.4092C10.7332 29.4062 10.7599 29.4082 10.786 29.417C10.812 29.4258 10.835 29.4385 10.8557 29.4561C10.8763 29.4736 10.8917 29.4951 10.9032 29.5205C10.9147 29.5449 10.9208 29.5713 10.9208 29.5977C10.9216 29.626 10.9163 29.6514 10.9055 29.6768C10.8948 29.7012 10.8794 29.7236 10.8595 29.7422C10.8396 29.7607 10.8167 29.7744 10.7905 29.7822L8.96021 30.6211C8.93567 30.6328 8.90894 30.6387 8.88135 30.6387C8.79932 30.6387 8.74109 30.6006 8.7074 30.5254L8.7074 30.5352ZM27.0109 22.1436C26.9886 22.0957 26.9863 22.0469 27.0048 21.9971C27.0223 21.9482 27.0553 21.9121 27.1035 21.8887L28.934 21.0508C28.9799 21.0342 29.0259 21.0371 29.071 21.0557C29.1171 21.0762 29.1499 21.1074 29.1699 21.1523C29.1906 21.1973 29.1936 21.2432 29.1791 21.29C29.1646 21.3369 29.1362 21.373 29.0933 21.3975L27.2629 22.2363C27.2384 22.248 27.2124 22.2539 27.1848 22.2549C27.1442 22.2559 27.1074 22.2451 27.0737 22.2227C27.0408 22.2012 27.0162 22.1719 27.0017 22.1348L27.0109 22.1436ZM49.0065 27.8584C49.0287 27.8105 49.0647 27.7773 49.1136 27.7598C49.1627 27.7412 49.2118 27.7441 49.2593 27.7656L51.1125 28.6045C51.1532 28.623 51.1831 28.6523 51.203 28.6924C51.2222 28.7334 51.2275 28.7744 51.2184 28.8184C51.2091 28.8613 51.1869 28.8975 51.1525 28.9258C51.1179 28.9541 51.0781 28.9688 51.0337 28.9697C51.0061 28.9697 50.9801 28.9639 50.9547 28.9512L49.1014 28.1133C49.0762 28.1035 49.054 28.0889 49.0348 28.0703C49.0156 28.0508 49.0011 28.0293 48.9911 28.0039C48.9812 27.9795 48.9766 27.9531 48.978 27.9258C48.9789 27.8984 48.9857 27.873 48.9972 27.8486L49.0065 27.8584ZM37.9301 22.8125C37.9401 22.79 37.9546 22.7695 37.973 22.752C37.9915 22.7344 38.0128 22.7217 38.0366 22.7129C38.0603 22.7041 38.0848 22.7002 38.1101 22.7012C38.1355 22.7021 38.1592 22.707 38.1821 22.7178L40.0355 23.5586C40.0592 23.5693 40.0792 23.584 40.0968 23.6016C40.1136 23.6201 40.1267 23.6406 40.1359 23.665C40.145 23.6885 40.1489 23.7129 40.1482 23.7383C40.1473 23.7637 40.1412 23.7881 40.1305 23.8115C40.109 23.8584 40.073 23.8916 40.024 23.9102C39.975 23.9287 39.9259 23.9268 39.8784 23.9062L38.0251 23.0645C38.0013 23.0547 37.9814 23.04 37.9639 23.0225C37.947 23.0039 37.934 22.9834 37.9248 22.959C37.9155 22.9355 37.9117 22.9111 37.9125 22.8857C37.9132 22.8604 37.9194 22.8359 37.9301 22.8125ZM41.6184 24.4912C41.6406 24.4443 41.6759 24.4111 41.7249 24.3926C41.7739 24.374 41.823 24.375 41.8705 24.3965L43.7246 25.2373C43.7721 25.2588 43.8051 25.2949 43.8226 25.3438C43.8411 25.3936 43.8387 25.4424 43.8173 25.4902C43.8019 25.5234 43.7782 25.5508 43.7468 25.5713C43.7153 25.5918 43.6809 25.6006 43.6433 25.6006C43.6157 25.6006 43.5897 25.5957 43.5645 25.585L41.7111 24.7441C41.6636 24.7217 41.6315 24.6865 41.613 24.6367C41.5955 24.5879 41.5969 24.5391 41.6184 24.4912ZM34.2418 21.1338C34.2518 21.1113 34.2656 21.0908 34.2839 21.0732C34.3024 21.0557 34.3239 21.042 34.3475 21.0332C34.3713 21.0234 34.3959 21.0205 34.4211 21.0215C34.4471 21.0225 34.4709 21.0283 34.4939 21.0391L36.3473 21.8799C36.3702 21.8906 36.3909 21.9043 36.4086 21.9229C36.4254 21.9414 36.4384 21.9619 36.4476 21.9863C36.4568 22.0098 36.4606 22.0342 36.4598 22.0596C36.4591 22.085 36.453 22.1084 36.4423 22.1328C36.4077 22.2061 36.3503 22.2432 36.2683 22.2432C36.2415 22.2432 36.2147 22.2383 36.1902 22.2266L34.3361 21.3867C34.3131 21.376 34.2932 21.3613 34.2755 21.3438C34.2587 21.3252 34.2449 21.3037 34.2365 21.2793C34.2273 21.2568 34.2234 21.2324 34.2242 21.207C34.225 21.1816 34.2311 21.1572 34.2418 21.1338ZM45.3066 26.1699C45.3289 26.123 45.3649 26.0898 45.4147 26.0713C45.4645 26.0527 45.5128 26.0537 45.5618 26.0752L47.4152 26.916C47.4619 26.9385 47.4948 26.9736 47.5132 27.0225C47.5316 27.0723 47.5308 27.1201 47.5101 27.168C47.494 27.2031 47.4703 27.2295 47.4381 27.25C47.4067 27.2705 47.3715 27.2803 47.3339 27.2793C47.3063 27.2793 47.2803 27.2744 47.255 27.2637L45.4016 26.4229C45.3541 26.4004 45.3212 26.3643 45.3021 26.3154C45.2837 26.2666 45.2852 26.2188 45.3066 26.1699ZM54.8774 30.5283C54.843 30.6016 54.7848 30.6387 54.7036 30.6387C54.676 30.6396 54.6499 30.6338 54.6246 30.6211L52.7714 29.7822C52.7239 29.7607 52.6901 29.7246 52.6718 29.6758C52.6533 29.627 52.6549 29.5781 52.6763 29.5303C52.6985 29.4824 52.7338 29.4492 52.7828 29.4297C52.8326 29.4121 52.8809 29.4131 52.9292 29.4355L54.7825 30.2734C54.8308 30.2949 54.8645 30.3311 54.8828 30.3809C54.9012 30.4307 54.8997 30.4795 54.8774 30.5283ZM63.5374 44.6152C63.5374 48.0557 60.5677 51.3174 55.1786 53.7939C49.9772 56.1836 42.8994 57.6934 35.2333 58.041L35.2072 58.041C35.1313 58.042 35.0586 58.0293 34.988 58.002C34.9169 57.9746 34.854 57.9346 34.7996 57.8818C34.7444 57.8301 34.7015 57.7686 34.6716 57.7002C34.641 57.6299 34.6249 57.5576 34.6226 57.4814C34.6211 57.4053 34.6342 57.333 34.6617 57.2617C34.6892 57.1914 34.7291 57.1279 34.7812 57.0742C34.8341 57.0186 34.8947 56.9756 34.9644 56.9453C35.0333 56.915 35.1061 56.8984 35.1819 56.8965C50.4384 56.2031 62.3912 50.8096 62.3912 44.625C62.3912 42.6895 61.2043 40.7412 58.9596 38.998C58.8937 38.9541 58.8392 38.8994 58.7957 38.832C58.7527 38.7666 58.7244 38.6934 58.7113 38.6152C58.6984 38.5371 58.7014 38.46 58.7206 38.3838C58.7396 38.3057 58.7734 38.2363 58.8217 38.1738C58.8699 38.1104 58.929 38.0605 58.9987 38.0215C59.0676 37.9824 59.142 37.96 59.2208 37.9521C59.2998 37.9443 59.3771 37.9531 59.4521 37.9775C59.5281 38.002 59.5955 38.04 59.6544 38.0928C62.1965 40.0547 63.5374 42.3115 63.5374 44.6152ZM30.2448 57.5176C30.2394 57.6182 30.2096 57.7109 30.1544 57.7959C30.1 57.8799 30.028 57.9453 29.9391 57.9922L26.2577 59.916C26.191 59.9521 26.1199 59.9746 26.0447 59.9824C25.9689 59.9902 25.8954 59.9824 25.8225 59.9619C25.7498 59.9395 25.6847 59.9043 25.6256 59.8564C25.5667 59.8086 25.5199 59.752 25.4839 59.6846C25.4486 59.6182 25.4272 59.5469 25.4196 59.4717C25.4119 59.3965 25.4188 59.3232 25.441 59.25C25.4624 59.1787 25.4969 59.1123 25.5444 59.0537C25.5919 58.9951 25.6494 58.9482 25.7153 58.9121L27.4484 58.0059C11.7245 57.1025 0.0107422 51.4326 0.0107422 44.6152C0.0107422 42.1611 1.52087 39.7764 4.38013 37.7158C4.44141 37.667 4.50964 37.6318 4.58472 37.6123C4.66052 37.5908 4.73645 37.5859 4.81372 37.5967C4.89111 37.6074 4.96399 37.6328 5.03064 37.6729C5.09802 37.7129 5.15393 37.7656 5.19995 37.8281C5.24585 37.8916 5.27734 37.9609 5.29419 38.0371C5.31177 38.1133 5.3125 38.1904 5.29871 38.2666C5.28418 38.3438 5.25586 38.415 5.21216 38.4795C5.16931 38.5449 5.11487 38.5986 5.0498 38.6416C2.50305 40.4805 1.16919 42.5449 1.16919 44.6152C1.16919 50.752 12.7527 56.0635 27.7402 56.8643L25.9773 55.665C25.9144 55.623 25.8624 55.5693 25.8202 55.5059C25.7789 55.4424 25.7505 55.374 25.7367 55.2988C25.7222 55.2246 25.7229 55.1504 25.7383 55.0752C25.7535 55.001 25.7827 54.9326 25.8256 54.8691C25.8685 54.8066 25.9214 54.7549 25.985 54.7129C26.0486 54.6709 26.1176 54.6436 26.1919 54.6289C26.267 54.6152 26.3412 54.6152 26.4155 54.6309C26.4899 54.6465 26.5588 54.6758 26.6217 54.7178L29.995 57.0098C30.0778 57.0674 30.1421 57.1406 30.1865 57.2305C30.231 57.3213 30.251 57.417 30.2448 57.5176Z" fill="url(#paint_linear_9_190_0)" fill-opacity="1.000000" fill-rule="nonzero"/>
	</g>
</svg>
