<svg width="70.000000" height="70.000000" viewBox="0 0 70 70" fill="none" xmlns="http://www.w3.org/2000/svg" xmlns:xlink="http://www.w3.org/1999/xlink">
	<defs>
		<clipPath id="clip9_191">
			<rect id="Title &amp; Desc" width="70.000000" height="70.000000" fill="white" fill-opacity="0"/>
		</clipPath>
		<linearGradient id="paint_linear_9_197_0" x1="5.000000" y1="35.000000" x2="65.000000" y2="35.000000" gradientUnits="userSpaceOnUse">
			<stop stop-color="#0CBAF1"/>
			<stop offset="1.000000" stop-color="#E95CE9"/>
		</linearGradient>
	</defs>
	<g clip-path="url(#clip9_191)">
		<g opacity="0.860000">
			<path id="Vector" d="M40.5696 47.3467C40.5921 47.3828 40.6053 47.4229 40.6116 47.4648C40.6177 47.5068 40.6146 47.5488 40.6038 47.5898C40.5921 47.6309 40.5735 47.6689 40.5471 47.7031C40.5207 47.7363 40.4888 47.7637 40.4515 47.7842C37.4375 49.4951 34.2891 50.9082 31.0071 52.0225C32.5401 53.7393 31.9639 61.959 31.4753 66.7188C31.4715 66.7568 31.4614 66.7939 31.4435 66.8281C31.4257 66.8633 31.4023 66.8936 31.3736 66.9199C31.3449 66.9453 31.3123 66.9658 31.2758 66.9795C31.2393 66.9941 31.2012 67.001 31.1624 67L31.1321 67C31.0886 66.9971 31.0482 66.9854 31.0102 66.9648C30.9721 66.9453 30.9387 66.918 30.9116 66.8848C30.8843 66.8506 30.8649 66.8135 30.8533 66.7725C30.8409 66.7305 30.8378 66.6885 30.8424 66.6465C32.1805 53.5869 30.5582 52.4297 30.444 52.3574C30.371 52.3477 30.3089 52.3164 30.2584 52.2637C28.4543 52.8672 26.616 53.3389 24.7444 53.6758C24.2815 53.7773 23.814 53.8281 23.3403 53.8301C21.7901 53.8301 20.3976 53.2588 19.5961 52.2334C18.8428 51.2705 18.2534 49.5098 19.6334 46.5459C19.0883 46.1094 17.8488 44.8164 18.8211 42.7979C18.8475 42.7432 18.8864 42.7002 18.9376 42.668C18.9888 42.6357 19.0447 42.6201 19.1053 42.6201L24.3173 42.6201C24.3569 42.624 24.3941 42.6338 24.4299 42.6514C24.4648 42.6689 24.4966 42.6924 24.5231 42.7207C24.5494 42.75 24.5704 42.7832 24.5844 42.8193C24.5992 42.8564 24.6061 42.8945 24.6061 42.9346C24.6061 42.9736 24.5992 43.0117 24.5844 43.0479C24.5704 43.0859 24.5494 43.1182 24.5231 43.1475C24.4966 43.1768 24.4648 43.1992 24.4299 43.2168C24.3941 43.2344 24.3569 43.2441 24.3173 43.248L19.3158 43.248C19.2568 43.374 19.2094 43.5049 19.1744 43.6406C19.1395 43.7764 19.1162 43.9131 19.1061 44.0527C19.096 44.1924 19.0983 44.3311 19.1139 44.4697C19.1286 44.6084 19.1566 44.7441 19.1962 44.8789C19.2366 45.0117 19.2886 45.1416 19.3515 45.2656C19.4152 45.3896 19.4897 45.5078 19.5744 45.6191C19.6599 45.7295 19.7538 45.832 19.8578 45.9258C19.9612 46.0195 20.073 46.1025 20.1918 46.1768C20.2252 46.1963 20.2548 46.2227 20.2788 46.2539C20.3029 46.2852 20.3207 46.3193 20.3316 46.3574C20.3425 46.3955 20.3464 46.4346 20.3433 46.4736C20.3401 46.5127 20.3293 46.5498 20.3122 46.5859C19.2172 48.8096 19.1426 50.6279 20.0932 51.835C20.9847 52.9736 22.7671 53.4512 24.6326 53.0488C24.7227 53.0332 31.8963 51.9082 40.1362 47.2197C40.1735 47.1992 40.2131 47.1855 40.2551 47.1816C40.2978 47.1768 40.3389 47.1797 40.3801 47.1924C40.4205 47.2041 40.4578 47.2236 40.4904 47.25C40.5238 47.2764 40.5502 47.3096 40.5696 47.3467ZM55.6027 46.0605C55.0466 49.7607 57.5233 56.3516 61.491 61.7314C61.5159 61.7646 61.533 61.8018 61.543 61.8418C61.5532 61.8828 61.5547 61.9229 61.5493 61.9639C61.543 62.0049 61.5291 62.043 61.5073 62.0791C61.4863 62.1143 61.4584 62.1436 61.425 62.1689C61.3916 62.1934 61.3551 62.2109 61.3147 62.2197C61.2744 62.2295 61.2339 62.2324 61.1928 62.2256C61.1516 62.2197 61.1136 62.2061 61.0779 62.1846C61.0421 62.1631 61.0126 62.1357 60.987 62.1035C56.8639 56.5146 54.3942 49.8789 54.9829 45.9668C55.1732 44.6982 56.2201 42.3516 57.232 40.083C57.9326 38.5146 58.6556 36.8945 59.0431 35.7393C59.0416 35.7314 59.0416 35.7217 59.0431 35.7129C59.1021 35.5801 59.1588 35.4443 59.2155 35.3086L54.4509 35.3086C54.4595 35.3809 54.4447 35.4463 54.4075 35.5078C54.0184 36.1562 53.5765 36.7656 53.0802 37.3369C52.9684 37.7734 52.3378 40.0107 50.9468 40.7148C50.668 40.8604 50.3705 40.9336 50.056 40.9346C49.7399 40.9297 49.4379 40.8633 49.1497 40.7344C47.9141 40.2051 48.0391 38.9346 48.2737 38.3291C48.2908 38.293 48.3141 38.2617 48.3436 38.2354C48.3723 38.208 48.4057 38.1865 48.443 38.1719C48.4803 38.1582 48.5183 38.1514 48.5587 38.1514C48.5983 38.1514 48.6371 38.1582 48.6736 38.1729C48.7109 38.1875 48.7443 38.209 48.7731 38.2354C48.8026 38.2637 48.8251 38.2949 48.8422 38.3311C48.8593 38.3672 48.8694 38.4053 48.8724 38.4443C48.8748 38.4844 48.8701 38.5225 48.8585 38.5605C48.8119 38.6787 48.4313 39.7354 49.3928 40.1484C49.5916 40.248 49.8029 40.2979 50.025 40.2979C50.2479 40.2979 50.4591 40.248 50.6579 40.1484C51.9153 39.5127 52.476 37.1396 52.4822 37.1152C52.4931 37.0674 52.514 37.0244 52.5459 36.9863C53.0056 36.459 53.4196 35.8975 53.7877 35.3018L48.8119 35.3018C48.7847 35.3027 48.7575 35.2988 48.7311 35.291C48.2442 35.1465 47.7859 34.9395 47.3557 34.6689C46.9263 34.3984 46.5403 34.0752 46.2001 33.6992C46.1403 33.7617 46.0673 33.7949 45.9811 33.7979L44.6228 33.7979C43.6862 35.3633 42.5671 36.4219 41.2662 36.4219L41.1831 36.4219C40.7451 36.6826 38.774 37.8125 36.8977 37.8125C36.7642 37.8125 36.6282 37.8125 36.4947 37.793C36.16 37.9482 35.8081 38.0273 35.4392 38.0342C35.3655 38.0342 35.2925 38.0293 35.2202 38.0186L15.1088 36.9385C15.1313 36.9531 15.1508 36.9707 15.1686 36.9902C15.915 37.9727 18.0981 38.0391 18.8778 37.9785C18.9252 37.9746 18.9717 37.9824 19.016 37.999C19.061 38.0156 19.0999 38.042 19.1325 38.0771C19.1652 38.1123 19.1884 38.1523 19.2024 38.1982C19.2164 38.2441 19.2203 38.291 19.2125 38.3379C19.1232 38.9502 18.9935 40.7148 19.4059 41.5088C19.4245 41.5459 19.4362 41.585 19.4401 41.627C19.444 41.668 19.4401 41.708 19.4276 41.749C19.4152 41.7881 19.3958 41.8242 19.3694 41.8555C19.343 41.8887 19.3112 41.9141 19.2739 41.9336C19.2288 41.959 19.1799 41.9717 19.1271 41.9707C19.0696 41.9707 19.0153 41.9551 18.9655 41.9258C18.9158 41.8965 18.877 41.8555 18.8491 41.8047C18.3831 40.9297 18.4724 39.3418 18.5446 38.6201C17.6694 38.6348 15.5515 38.5371 14.6669 37.3691C14.6421 37.3359 14.6242 37.2988 14.6141 37.2588C14.6033 37.2197 14.601 37.1787 14.6071 37.1377C14.6125 37.0967 14.6258 37.0576 14.6467 37.0225C14.6677 36.9863 14.6949 36.9561 14.7283 36.9316C14.7283 36.9316 14.7438 36.9316 14.7501 36.9209L10.9073 36.7129C10.8017 36.7129 8.2373 36.6406 7.98566 35.0332C5.66046 34.4795 5.47174 31.9004 5.46088 31.6709C4.95996 26.8516 4.86755 22.0244 5.18286 17.1885C5.24884 15.4736 6.76636 14.916 7.31158 14.8506L7.63074 14.793C7.89166 14.4287 8.77161 13.4619 10.9687 13.1396C11.0409 13.1396 15.4879 12.5361 22.2111 12.2168C26.2922 6.1084 35.0408 2.74219 41.1482 3.01562C49.3509 3.38574 56.356 7.38965 59.9339 13.7324L60.8425 13.6514C60.8045 13.4102 60.8115 13.1709 60.8627 12.9326C60.9148 12.6934 61.0079 12.4736 61.1431 12.2695C61.4273 11.8955 61.8723 11.6992 62.4564 11.6836L62.52 11.6836C64.5874 11.6836 64.7474 14.3623 64.8654 16.3242C65.1108 20.3926 65.0208 23.623 64.5936 26.1992C63.9871 29.8779 62.9954 32.6514 60.0372 34.9473C59.9036 35.2861 59.7654 35.623 59.6209 35.9512C59.2249 37.1348 58.5259 38.6914 57.7943 40.3389C56.8096 42.5693 55.7797 44.875 55.6027 46.0605ZM61.6091 20.4248L53.7652 21.252C53.5104 21.4102 53.2339 21.4736 52.9357 21.4395L51.4027 21.4971C51.1759 23.1396 50.7954 24.7461 50.261 26.3164C49.7267 27.8877 49.048 29.3936 48.2255 30.834C48.4259 31.0928 48.6667 31.3076 48.9485 31.4756C49.2297 31.6436 49.5326 31.7539 49.8564 31.8066C50.7325 31.9932 53.5159 32.0254 55.5367 32.0254C55.525 31.9648 55.5312 31.9062 55.5545 31.8486C56.1874 30.2979 56.297 28.9326 55.8566 28.1045C55.7409 27.8848 55.5825 27.7021 55.3806 27.5566C55.1794 27.4111 54.9565 27.3184 54.7111 27.2773C51.8492 26.665 51.1223 29.2832 51.0936 29.3945C51.0851 29.4365 51.068 29.4756 51.0432 29.5107C51.0175 29.5449 50.9872 29.5742 50.95 29.5967C50.9135 29.6191 50.8738 29.6338 50.8311 29.6396C50.7884 29.6465 50.7465 29.6436 50.7045 29.6318C50.6626 29.6211 50.6253 29.6025 50.5911 29.5762C50.5569 29.5488 50.5298 29.5176 50.5096 29.4795C50.4886 29.4424 50.4762 29.4014 50.4716 29.3584C50.4677 29.3154 50.4723 29.2734 50.4855 29.2324C50.4855 29.2002 51.3981 25.9277 54.8431 26.6631C55.0078 26.6943 55.167 26.7432 55.3207 26.8115C55.4745 26.8779 55.619 26.9619 55.7541 27.0615C55.8892 27.1611 56.0112 27.2754 56.1207 27.4023C56.2302 27.5293 56.3234 27.667 56.4018 27.8154C56.9323 28.8125 56.8398 30.3086 56.1502 32.0303C56.9276 32.0303 57.5124 32.0303 57.698 32.0303C57.9916 31.8945 59.6691 31.0107 61.0988 28.0625C61.1804 27.5811 61.7885 23.4551 61.6091 20.4248ZM52.9265 20.8125L52.9598 20.8125C53.3101 20.8301 53.4149 20.749 53.4258 20.7266L53.4258 16.9238C47.9669 13.8984 41.6491 13.0615 38.7259 12.8428C39.0366 13.1016 39.2889 13.4072 39.4847 13.7607C39.6796 14.1152 39.8038 14.4922 39.8582 14.8916C40.5439 20.0127 40.5968 25.1416 40.0182 30.2764C39.6284 33.6465 38.7655 35.9619 37.4538 37.1699C39.1771 36.9512 40.916 35.873 40.9354 35.8574L40.9595 35.8574C43.1231 34.7285 43.3685 31.2188 43.3685 31.1836L43.8066 23.8291C43.8571 21.1797 46.3484 21.0684 46.3725 21.0684L52.9265 20.8125ZM62.9169 19.0361L62.5946 14.1543L50.9429 15.0293C51.9587 15.4502 52.9451 15.9297 53.9034 16.4688C53.9531 16.4971 53.9919 16.5352 54.0207 16.584C54.0494 16.6328 54.0634 16.6855 54.0634 16.7422L54.0634 20.5918L61.8785 19.7666C62.9169 19.6074 62.9169 19.043 62.9169 19.0361ZM41.1194 3.64355C40.7451 3.62793 40.3599 3.62402 39.9677 3.64355C37.8017 4.06934 32.9711 5.70996 28.4124 12.042C30.7663 12.0137 33.2709 12.042 35.8571 12.1211C35.9122 12.1211 35.9689 12.1211 36.0303 12.1357C36.33 12.1104 36.629 12.1143 36.928 12.1484C36.9661 12.1338 37.0057 12.126 37.0461 12.127C41.3423 12.2803 45.5159 13.0732 49.5676 14.5068L59.2272 13.7803C55.723 7.77441 48.9921 3.99805 41.1194 3.64355ZM23.0009 12.1865C24.5688 12.1182 26.2534 12.0684 28.0248 12.042C31.2346 7.50781 34.5764 5.34082 36.8364 4.3125C37.3334 4.09375 37.7979 3.90723 38.2266 3.76172C32.8135 4.42676 26.4258 7.3916 23.0009 12.1865ZM8.72577 14.6113C10.6115 14.3115 14.1458 13.8096 17.9233 13.5908C22.8347 13.3037 30.0541 13.1523 30.4883 13.1523C30.736 13.1338 30.983 13.1377 31.23 13.1689C31.4769 13.1992 31.7177 13.2549 31.953 13.334C32.1883 13.4131 32.4135 13.5156 32.6287 13.6406C32.843 13.7666 33.0426 13.9121 33.2274 14.0781C35.0144 15.585 35.9208 18.625 35.9208 23.1133C35.9208 28.0342 35.3802 31.6738 34.3178 33.9346C33.8651 34.8975 33.403 35.4092 33.0612 35.6846L35.4959 35.8037C36.5141 34.8604 37.1625 32.0713 37.3287 31.0508C38.6669 22.8047 37.5765 14.5635 37.5656 14.4824C37.401 13.1289 36.4178 12.8291 36.0193 12.7637C35.9976 12.7656 35.9759 12.7656 35.9534 12.7637L35.8555 12.7637C27.5643 12.4727 19.2987 12.8047 11.058 13.7607C10.2122 13.8584 9.43481 14.1416 8.72577 14.6113ZM8.72577 34.5146L11.1038 32.3721C11.166 32.3154 11.239 32.2881 11.3228 32.29L23.5507 32.5654C23.5934 32.5684 23.6346 32.5771 23.6734 32.5947C25.4402 33.4102 27.1473 34.3359 28.7952 35.3691L32.3995 35.3691C32.6776 35.2432 35.2839 33.7773 35.2839 23.1221C35.2839 17.7744 33.9412 15.5176 32.8158 14.5684C31.6905 13.6191 30.5714 13.7852 30.5605 13.7871L30.5147 13.7871C30.4401 13.7871 22.9814 13.9297 17.9536 14.2246C14.4169 14.4414 10.9026 14.8555 7.41174 15.4668L7.39001 15.4668C7.37677 15.4668 5.86859 15.6855 5.8111 17.2168C5.50049 22.0244 5.59601 26.8252 6.09845 31.6172C6.10083 31.6279 6.10083 31.6396 6.09845 31.6514C6.09845 31.7549 6.19012 34.3789 8.72577 34.5215L8.72577 34.5146ZM23.47 33.2031L11.4261 32.9287L9.60181 34.5625L27.7095 35.4268C25.8697 34.3174 23.8358 33.3691 23.4614 33.2002L23.47 33.2031ZM36.2974 37.209C36.452 37.1328 36.598 37.042 36.7354 36.9385C37.6642 36.2422 38.875 34.5107 39.3744 30.2012C39.946 25.126 39.8939 20.0576 39.2191 14.9951C39.0001 13.708 38.2358 13.1445 37.5237 12.9062C37.7101 13.1152 37.8592 13.3467 37.9718 13.6025C38.0836 13.8584 38.1536 14.126 38.1807 14.4043C38.1807 14.4824 39.2928 22.8135 37.9423 31.1523C37.9136 31.3174 37.2674 35.1846 35.7941 36.3701C35.7359 36.415 35.6707 36.4385 35.5969 36.4395L35.5814 36.4395L8.81818 35.1504L8.66052 35.1504C9.05432 36.0264 10.8941 36.0957 10.9158 36.0957L35.2575 37.4082L35.2986 37.4082C35.6489 37.4395 35.979 37.373 36.2889 37.207L36.2974 37.209ZM47.7697 21.6309L46.3904 21.6787C46.3112 21.6787 44.4698 21.7793 44.4302 23.835L43.9813 31.2139C43.9813 31.3418 43.8066 33.7988 42.449 35.4248C45.2495 33.5156 47.1655 25.3086 47.7611 21.6279L47.7697 21.6309ZM45.8273 33.1826C49.6157 28.625 50.5725 22.9756 50.7635 21.5254L48.4026 21.6104C48.2643 22.4678 47.1476 29.0801 44.9715 33.1826L45.8273 33.1826ZM48.8585 34.6875L59.3584 34.6875C62.3934 32.4697 63.3806 29.7559 63.9855 26.1025C64.4033 23.5723 64.4888 20.3877 64.248 16.3682C64.1144 14.1523 63.8907 12.3174 62.5247 12.3174L62.4851 12.3174C62.3267 12.3057 62.1736 12.3291 62.0269 12.3887C61.8793 12.4473 61.7527 12.5361 61.6464 12.6543C61.5594 12.7979 61.5004 12.9512 61.4708 13.1162C61.4406 13.2812 61.4421 13.4453 61.4731 13.6094L62.8532 13.5049C62.9402 13.499 63.0171 13.5234 63.0831 13.582C63.1491 13.6396 63.1848 13.7129 63.1902 13.8008L63.5452 19.0059C63.5452 19.0537 63.5801 20.0186 62.2311 20.3398C62.437 23.6211 61.752 28.0146 61.7209 28.2139C61.7162 28.2432 61.7077 28.2725 61.6945 28.2988C60.017 31.7979 57.9722 32.6123 57.8821 32.6445C57.8479 32.6562 57.8129 32.6631 57.7772 32.6641C57.6832 32.6641 56.8398 32.6748 55.723 32.6748C53.6666 32.6748 50.6866 32.6377 49.7205 32.4346C49.3664 32.3691 49.0309 32.25 48.7148 32.0762C48.3995 31.9023 48.1191 31.6826 47.8753 31.417C47.4839 32.043 47.0606 32.6445 46.6047 33.2246C46.9053 33.5674 47.247 33.8623 47.6299 34.1094C48.0128 34.3574 48.422 34.5469 48.8585 34.6807L48.8585 34.6875Z" fill="url(#paint_linear_9_197_0)" fill-opacity="1.000000" fill-rule="nonzero"/>
		</g>
	</g>
</svg>
